<mxfile host="app.diagrams.net" modified="2023-11-15T15:22:42.358Z" agent="Mozilla/5.0 (Macintosh; Intel Mac OS X 10_15_7) AppleWebKit/605.1.15 (KHTML, like Gecko) Version/16.5.1 Safari/605.1.15" etag="xqMtUliY8RKiAK1K9Qte" version="22.1.1" type="device">
  <diagram name="Страница — 1" id="coO8m4LXgz8QtG4gmNiN">
    <mxGraphModel dx="1397" dy="918" grid="1" gridSize="10" guides="1" tooltips="1" connect="1" arrows="1" fold="1" page="1" pageScale="1" pageWidth="827" pageHeight="1169" math="0" shadow="0">
      <root>
        <mxCell id="0" />
        <mxCell id="1" parent="0" />
        <mxCell id="nbMVrA_Bqr_r8GRXzwHQ-1" value="" style="rounded=0;whiteSpace=wrap;html=1;" vertex="1" parent="1">
          <mxGeometry x="120" y="40" width="580" height="330" as="geometry" />
        </mxCell>
        <mxCell id="nbMVrA_Bqr_r8GRXzwHQ-31" style="edgeStyle=orthogonalEdgeStyle;rounded=0;orthogonalLoop=1;jettySize=auto;html=1;exitX=0.003;exitY=0.225;exitDx=0;exitDy=0;exitPerimeter=0;" edge="1" parent="1" source="nbMVrA_Bqr_r8GRXzwHQ-27" target="nbMVrA_Bqr_r8GRXzwHQ-17">
          <mxGeometry relative="1" as="geometry" />
        </mxCell>
        <mxCell id="nbMVrA_Bqr_r8GRXzwHQ-27" value="" style="rounded=1;whiteSpace=wrap;html=1;" vertex="1" parent="1">
          <mxGeometry x="320" y="70" width="360" height="270" as="geometry" />
        </mxCell>
        <mxCell id="nbMVrA_Bqr_r8GRXzwHQ-24" style="edgeStyle=orthogonalEdgeStyle;rounded=0;orthogonalLoop=1;jettySize=auto;html=1;entryX=0;entryY=0.5;entryDx=0;entryDy=0;" edge="1" parent="1" source="nbMVrA_Bqr_r8GRXzwHQ-1" target="nbMVrA_Bqr_r8GRXzwHQ-4">
          <mxGeometry relative="1" as="geometry">
            <Array as="points">
              <mxPoint x="30" y="205" />
              <mxPoint x="30" y="955" />
            </Array>
          </mxGeometry>
        </mxCell>
        <mxCell id="nbMVrA_Bqr_r8GRXzwHQ-20" style="edgeStyle=orthogonalEdgeStyle;rounded=0;orthogonalLoop=1;jettySize=auto;html=1;entryX=1;entryY=0.5;entryDx=0;entryDy=0;" edge="1" parent="1" source="nbMVrA_Bqr_r8GRXzwHQ-3" target="nbMVrA_Bqr_r8GRXzwHQ-1">
          <mxGeometry relative="1" as="geometry">
            <Array as="points">
              <mxPoint x="770" y="570" />
              <mxPoint x="770" y="205" />
            </Array>
          </mxGeometry>
        </mxCell>
        <mxCell id="nbMVrA_Bqr_r8GRXzwHQ-26" style="edgeStyle=orthogonalEdgeStyle;rounded=0;orthogonalLoop=1;jettySize=auto;html=1;entryX=1;entryY=0.5;entryDx=0;entryDy=0;" edge="1" parent="1" source="nbMVrA_Bqr_r8GRXzwHQ-3" target="nbMVrA_Bqr_r8GRXzwHQ-4">
          <mxGeometry relative="1" as="geometry">
            <Array as="points">
              <mxPoint x="770" y="585" />
              <mxPoint x="770" y="930" />
            </Array>
          </mxGeometry>
        </mxCell>
        <mxCell id="nbMVrA_Bqr_r8GRXzwHQ-3" value="" style="rounded=0;whiteSpace=wrap;html=1;" vertex="1" parent="1">
          <mxGeometry x="120" y="420" width="580" height="330" as="geometry" />
        </mxCell>
        <mxCell id="nbMVrA_Bqr_r8GRXzwHQ-4" value="" style="rounded=0;whiteSpace=wrap;html=1;" vertex="1" parent="1">
          <mxGeometry x="124" y="790" width="580" height="280" as="geometry" />
        </mxCell>
        <mxCell id="nbMVrA_Bqr_r8GRXzwHQ-5" value="presentation" style="text;html=1;strokeColor=none;fillColor=none;align=center;verticalAlign=middle;whiteSpace=wrap;rounded=0;" vertex="1" parent="1">
          <mxGeometry x="140" y="800" width="60" height="30" as="geometry" />
        </mxCell>
        <mxCell id="nbMVrA_Bqr_r8GRXzwHQ-6" value="domain" style="text;html=1;strokeColor=none;fillColor=none;align=center;verticalAlign=middle;whiteSpace=wrap;rounded=0;" vertex="1" parent="1">
          <mxGeometry x="130" y="430" width="60" height="30" as="geometry" />
        </mxCell>
        <mxCell id="nbMVrA_Bqr_r8GRXzwHQ-7" value="data" style="text;html=1;strokeColor=none;fillColor=none;align=center;verticalAlign=middle;whiteSpace=wrap;rounded=0;" vertex="1" parent="1">
          <mxGeometry x="130" y="50" width="60" height="30" as="geometry" />
        </mxCell>
        <mxCell id="nbMVrA_Bqr_r8GRXzwHQ-13" value="" style="edgeStyle=orthogonalEdgeStyle;rounded=0;orthogonalLoop=1;jettySize=auto;html=1;" edge="1" parent="1" source="nbMVrA_Bqr_r8GRXzwHQ-8" target="nbMVrA_Bqr_r8GRXzwHQ-11">
          <mxGeometry relative="1" as="geometry" />
        </mxCell>
        <mxCell id="nbMVrA_Bqr_r8GRXzwHQ-14" style="edgeStyle=orthogonalEdgeStyle;rounded=0;orthogonalLoop=1;jettySize=auto;html=1;entryX=0.5;entryY=0;entryDx=0;entryDy=0;" edge="1" parent="1" source="nbMVrA_Bqr_r8GRXzwHQ-8" target="nbMVrA_Bqr_r8GRXzwHQ-10">
          <mxGeometry relative="1" as="geometry" />
        </mxCell>
        <mxCell id="nbMVrA_Bqr_r8GRXzwHQ-8" value="UserRepository interface" style="rounded=1;whiteSpace=wrap;html=1;" vertex="1" parent="1">
          <mxGeometry x="220" y="525" width="120" height="55" as="geometry" />
        </mxCell>
        <mxCell id="nbMVrA_Bqr_r8GRXzwHQ-10" value="GetUserNameUseCase" style="ellipse;whiteSpace=wrap;html=1;" vertex="1" parent="1">
          <mxGeometry x="140" y="640" width="150" height="80" as="geometry" />
        </mxCell>
        <mxCell id="nbMVrA_Bqr_r8GRXzwHQ-11" value="SaveUserNameUseCase" style="ellipse;whiteSpace=wrap;html=1;" vertex="1" parent="1">
          <mxGeometry x="310" y="640" width="150" height="80" as="geometry" />
        </mxCell>
        <mxCell id="nbMVrA_Bqr_r8GRXzwHQ-15" value="UserName model" style="rounded=1;whiteSpace=wrap;html=1;" vertex="1" parent="1">
          <mxGeometry x="500" y="465" width="140" height="60" as="geometry" />
        </mxCell>
        <mxCell id="nbMVrA_Bqr_r8GRXzwHQ-16" value="SaveUserNameParam model" style="rounded=1;whiteSpace=wrap;html=1;" vertex="1" parent="1">
          <mxGeometry x="500" y="540" width="140" height="60" as="geometry" />
        </mxCell>
        <mxCell id="nbMVrA_Bqr_r8GRXzwHQ-17" value="UserRepositoryImpl implementation" style="rounded=1;whiteSpace=wrap;html=1;" vertex="1" parent="1">
          <mxGeometry x="160" y="100" width="120" height="60" as="geometry" />
        </mxCell>
        <mxCell id="nbMVrA_Bqr_r8GRXzwHQ-18" value="UserStorage interface" style="rounded=1;whiteSpace=wrap;html=1;" vertex="1" parent="1">
          <mxGeometry x="350" y="110" width="160" height="60" as="geometry" />
        </mxCell>
        <mxCell id="nbMVrA_Bqr_r8GRXzwHQ-19" value="SharedPrefsUserStorage implementation" style="rounded=1;whiteSpace=wrap;html=1;" vertex="1" parent="1">
          <mxGeometry x="350" y="190" width="160" height="60" as="geometry" />
        </mxCell>
        <mxCell id="nbMVrA_Bqr_r8GRXzwHQ-25" value="Activity" style="rounded=0;whiteSpace=wrap;html=1;" vertex="1" parent="1">
          <mxGeometry x="370" y="870" width="90" height="160" as="geometry" />
        </mxCell>
        <mxCell id="nbMVrA_Bqr_r8GRXzwHQ-28" value="storage" style="text;html=1;strokeColor=none;fillColor=none;align=center;verticalAlign=middle;whiteSpace=wrap;rounded=0;" vertex="1" parent="1">
          <mxGeometry x="340" y="70" width="60" height="30" as="geometry" />
        </mxCell>
        <mxCell id="nbMVrA_Bqr_r8GRXzwHQ-29" value="User model" style="rounded=1;whiteSpace=wrap;html=1;" vertex="1" parent="1">
          <mxGeometry x="540" y="110" width="120" height="60" as="geometry" />
        </mxCell>
      </root>
    </mxGraphModel>
  </diagram>
</mxfile>
